<svg width="15" height="13" viewBox="0 0 15 13" fill="red" xmlns="http://www.w3.org/2000/svg">
<path d="M3.82232 11.7281L4.01239 11.2656L3.82232 11.7281ZM1.87401 9.79484L1.4126 9.98745L1.87401 9.79484ZM13.3259 9.79484L13.7874 9.98745L13.3259 9.79484ZM11.3776 11.7281L11.1876 11.2656L11.3776 11.7281ZM12.8592 4.9463L12.6691 5.40876L12.8592 4.9463ZM13.5086 5.59071L13.0472 5.78333L13.5086 5.59071ZM2.34076 4.9463L2.53083 5.40876L2.34076 4.9463ZM1.69132 5.59071L2.15273 5.78333L1.69132 5.59071ZM1 2.88145C0.723858 2.88145 0.5 3.1053 0.5 3.38145C0.5 3.65759 0.723858 3.88145 1 3.88145V2.88145ZM14.2 3.88145C14.4761 3.88145 14.7 3.65759 14.7 3.38145C14.7 3.1053 14.4761 2.88145 14.2 2.88145V3.88145ZM2.44782 3.02652C2.2518 3.22103 2.25057 3.53761 2.44508 3.73362C2.63958 3.92964 2.95616 3.93087 3.15218 3.73637L2.44782 3.02652ZM5.55218 1.35492C5.7482 1.16042 5.74943 0.84384 5.55492 0.647821C5.36042 0.451803 5.04384 0.450574 4.84782 0.645077L5.55218 1.35492ZM12.0478 3.73637C12.2438 3.93087 12.5604 3.92964 12.7549 3.73362C12.9494 3.53761 12.9482 3.22103 12.7522 3.02652L12.0478 3.73637ZM10.3522 0.645077C10.1562 0.450574 9.83958 0.451803 9.64508 0.647821C9.45057 0.84384 9.4518 1.16042 9.64782 1.35492L10.3522 0.645077ZM6.59998 7.23711C6.59998 6.96097 6.37612 6.73711 6.09998 6.73711C5.82383 6.73711 5.59998 6.96097 5.59998 7.23711H6.59998ZM5.59998 9.61855C5.59998 9.8947 5.82383 10.1186 6.09998 10.1186C6.37612 10.1186 6.59998 9.8947 6.59998 9.61855H5.59998ZM9.59998 7.23711C9.59998 6.96097 9.37612 6.73711 9.09998 6.73711C8.82383 6.73711 8.59998 6.96097 8.59998 7.23711H9.59998ZM8.59998 9.61855C8.59998 9.8947 8.82383 10.1186 9.09998 10.1186C9.37612 10.1186 9.59998 9.8947 9.59998 9.61855H8.59998ZM3.39998 5.35566H11.8V4.35566H3.39998V5.35566ZM8.19998 11.5H6.99998V12.5H8.19998V11.5ZM6.99998 11.5C6.15449 11.5 5.54523 11.4997 5.06399 11.4672C4.58717 11.4349 4.27247 11.3725 4.01239 11.2656L3.63224 12.1905C4.03373 12.3556 4.46918 12.4292 4.99644 12.4649C5.51929 12.5003 6.16807 12.5 6.99998 12.5V11.5ZM1.09998 6.64175C1.09998 7.46706 1.0997 8.11129 1.13541 8.63058C1.17143 9.15444 1.24576 9.58777 1.4126 9.98745L2.33542 9.60223C2.22823 9.34545 2.16554 9.03445 2.13305 8.56198C2.10025 8.08495 2.09998 7.48085 2.09998 6.64175H1.09998ZM4.01239 11.2656C3.25218 10.9532 2.6494 10.3544 2.33542 9.60223L1.4126 9.98745C1.82938 10.9859 2.62825 11.7779 3.63224 12.1905L4.01239 11.2656ZM13.1 6.64175C13.1 7.48085 13.0997 8.08495 13.0669 8.56198C13.0344 9.03445 12.9717 9.34545 12.8645 9.60223L13.7874 9.98745C13.9542 9.58777 14.0285 9.15444 14.0645 8.63058C14.1003 8.11129 14.1 7.46706 14.1 6.64175H13.1ZM8.19998 12.5C9.03188 12.5 9.68066 12.5003 10.2035 12.4649C10.7308 12.4292 11.1662 12.3556 11.5677 12.1905L11.1876 11.2656C10.9275 11.3725 10.6128 11.4349 10.136 11.4672C9.65473 11.4997 9.04546 11.5 8.19998 11.5V12.5ZM12.8645 9.60223C12.5506 10.3544 11.9478 10.9532 11.1876 11.2656L11.5677 12.1905C12.5717 11.7779 13.3706 10.9859 13.7874 9.98745L12.8645 9.60223ZM11.8 5.35566C12.0863 5.35566 12.2762 5.35593 12.4228 5.36585C12.5649 5.37547 12.6296 5.3925 12.6691 5.40876L13.0493 4.48384C12.8683 4.40946 12.6829 4.38117 12.4903 4.36813C12.3022 4.35539 12.0728 4.35566 11.8 4.35566V5.35566ZM14.1 6.64175C14.1 6.37124 14.1003 6.14312 14.0874 5.95594C14.0742 5.76419 14.0455 5.57896 13.97 5.3981L13.0472 5.78333C13.0631 5.82129 13.0801 5.88418 13.0897 6.02453C13.0997 6.16946 13.1 6.35745 13.1 6.64175H14.1ZM12.6691 5.40876C12.8413 5.47951 12.9768 5.61469 13.0472 5.78333L13.97 5.3981C13.7969 4.98322 13.4652 4.65479 13.0493 4.48384L12.6691 5.40876ZM3.39998 4.35566C3.1272 4.35566 2.89777 4.35539 2.70962 4.36813C2.51705 4.38117 2.33165 4.40946 2.15068 4.48384L2.53083 5.40876C2.57039 5.3925 2.63504 5.37547 2.77716 5.36585C2.92371 5.35593 3.11362 5.35566 3.39998 5.35566V4.35566ZM2.09998 6.64175C2.09998 6.35745 2.10025 6.16946 2.11022 6.02454C2.11987 5.88418 2.13689 5.82129 2.15273 5.78333L1.22991 5.3981C1.15441 5.57896 1.12576 5.76419 1.11257 5.95594C1.0997 6.14312 1.09998 6.37124 1.09998 6.64175H2.09998ZM2.15068 4.48384C1.73475 4.65479 1.4031 4.98322 1.22991 5.3981L2.15273 5.78333C2.22313 5.61469 2.35869 5.47951 2.53083 5.40876L2.15068 4.48384ZM1 3.88145H14.2V2.88145H1V3.88145ZM3.15218 3.73637L5.55218 1.35492L4.84782 0.645077L2.44782 3.02652L3.15218 3.73637ZM12.7522 3.02652L10.3522 0.645077L9.64782 1.35492L12.0478 3.73637L12.7522 3.02652ZM5.59998 7.23711V9.61855H6.59998V7.23711H5.59998ZM8.59998 7.23711V9.61855H9.59998V7.23711H8.59998Z" fill="black"/>
</svg>
